<svg xmlns="http://www.w3.org/2000/svg" width="117" height="59" viewBox="0 0 117 59">
    <g fill="#2E2828" fill-rule="nonzero">
        <path d="M24 1h2v17h-2zM42.256 18c2.059.012 4.07-.681 5.744-1.98V7.725h-5.706l-.875 2.186h4.527v4.993a7.024 7.024 0 0 1-3.69.949c-3.538 0-6.163-2.97-6.163-6.85 0-3.878 2.625-6.849 6.163-6.849 1.612-.028 3.175.606 4.375 1.775l1.293-1.692C45.453-.093 41.958-.655 38.969.798c-2.988 1.452-4.927 4.655-4.968 8.207-.031 2.388.828 4.69 2.381 6.382 1.554 1.693 3.672 2.635 5.874 2.613zM65 18a8.875 8.875 0 0 0 9-9 9 9 0 1 0-18 0 8.876 8.876 0 0 0 9 9zm0-15.812c3.84 0 6.687 2.972 6.687 6.853 0 3.88-2.848 6.811-6.687 6.811-3.84 0-6.687-2.972-6.687-6.852 0-3.881 2.848-6.812 6.687-6.812zM89 19c4.118 0 7-2.595 7-6.99V1h-2.265v11.135c0 3.098-1.935 4.688-4.735 4.688-2.8 0-4.735-1.59-4.735-4.688V1H82v11.051C82 16.405 84.924 19 89 19zM106.306 10.577h1.971L114.232 18H117l-6.165-7.582c2.6-.479 4.236-2.235 4.236-4.63 0-2.394-2.223-4.788-5.745-4.788H104v17h2.306v-7.423zm0-7.582h2.852c2.348 0 3.523 1.038 3.523 2.834 0 1.795-1.175 2.793-3.523 2.793h-2.852V2.995zM9 41L1.742 57.037 0 59h3.36L9 46.22 14.682 59H18l-1.7-1.963zM24 41h2v17h-2zM42.573 43.107a6.238 6.238 0 0 1 4.169 1.651L48 43.066c-1.5-1.374-3.436-2.11-5.427-2.064C37.838 41.002 34 45.031 34 50c0 4.97 3.838 8.998 8.573 8.998 1.991.047 3.927-.69 5.427-2.064l-1.258-1.692a6.2 6.2 0 0 1-4.169 1.65c-3.657 0-6.37-2.97-6.37-6.85 0-3.88 2.713-6.935 6.37-6.935zM56 58h10v-2.115h-7.764v-5.507h6.3v-2.115h-6.3v-5.148H66V41H56zM1 28h116v2H1zM1.783 3.005L9.041 19l7.217-16.037L18 1h-3.318l-5.64 12.738L3.358 1H0z"/>
    </g>
</svg>
