<?xml version="1.0" encoding="utf-8"?>
<!-- Generator: Adobe Illustrator 16.0.0, SVG Export Plug-In . SVG Version: 6.00 Build 0)  -->
<!DOCTYPE svg PUBLIC "-//W3C//DTD SVG 1.1//EN" "http://www.w3.org/Graphics/SVG/1.1/DTD/svg11.dtd">
<svg version="1.1" id="Layer_1" xmlns="http://www.w3.org/2000/svg" xmlns:xlink="http://www.w3.org/1999/xlink" x="0px" y="0px"
	 width="117px" height="59px" viewBox="0 0 117 59" enable-background="new 0 0 117 59" xml:space="preserve">
<g>
	<path fill="#FFFFFF" d="M24,1h2v17h-2V1z M42.256,18c2.059,0.012,4.07-0.681,5.744-1.98V7.725h-5.706l-0.875,2.186h4.527v4.993
		c-1.119,0.65-2.396,0.979-3.69,0.949c-3.538,0-6.163-2.97-6.163-6.85c0-3.878,2.625-6.849,6.163-6.849
		c1.612-0.028,3.175,0.606,4.375,1.775l1.293-1.692c-2.471-2.33-5.966-2.892-8.955-1.439c-2.988,1.452-4.927,4.655-4.968,8.207
		c-0.031,2.388,0.828,4.69,2.381,6.382C37.936,17.08,40.054,18.022,42.256,18z M65,18c4.9,0.069,8.931-3.847,9-8.748
		C74.001,9.168,74.001,9.084,74,9c0-4.971-4.029-9-9-9s-9,4.029-9,9c-0.069,4.901,3.849,8.931,8.75,9
		C64.834,18.001,64.917,18.001,65,18z M65,2.188c3.84,0,6.688,2.972,6.688,6.853c0,3.88-2.849,6.811-6.688,6.811
		c-3.84,0-6.687-2.972-6.687-6.852C58.313,5.119,61.161,2.188,65,2.188z M89,19c4.118,0,7-2.595,7-6.99V1h-2.266v11.135
		c0,3.098-1.935,4.688-4.734,4.688s-4.734-1.59-4.734-4.688V1H82v11.051C82,16.405,84.924,19,89,19z M106.307,10.577h1.971
		L114.232,18H117l-6.165-7.582c2.601-0.479,4.235-2.235,4.235-4.63c0-2.394-2.223-4.788-5.744-4.788H104v17h2.307V10.577z
		 M106.307,2.995h2.852c2.348,0,3.523,1.038,3.523,2.834c0,1.795-1.176,2.793-3.523,2.793h-2.852V2.995z M9,41L1.742,57.037L0,59
		h3.36L9,46.221L14.682,59H18l-1.7-1.963L9,41z M24,41h2v17h-2V41z M42.573,43.107c1.546,0.014,3.032,0.603,4.169,1.65L48,43.066
		c-1.5-1.375-3.436-2.11-5.427-2.064C37.838,41.002,34,45.031,34,50c0,4.971,3.838,8.998,8.573,8.998
		c1.991,0.047,3.927-0.689,5.427-2.064l-1.258-1.691c-1.135,1.051-2.623,1.639-4.169,1.65c-3.657,0-6.37-2.971-6.37-6.851
		S38.916,43.107,42.573,43.107z M56,58h10v-2.115h-7.764v-5.507h6.3v-2.114h-6.3v-5.148H66V41H56V58z M1,28h116v2H1V28z
		 M1.783,3.005L9.041,19l7.217-16.037L18,1h-3.318l-5.64,12.738L3.358,1H0L1.783,3.005z"/>
</g>
</svg>
